<svg height="160pt" preserveAspectRatio="xMidYMid meet" viewBox="0 0 160 160" width="160pt" xmlns="http://www.w3.org/2000/svg"><path d="m734 1568c-44-21-78-117-54-153 23-34 18-44-33-68-39-19-69-26-122-26-124-2-165-9-210-36-94-55-126-129-129-302l-1-61-27 5c-55 11-58-1-58-207 0-186 0-187 23-197 15-7 29-7 40-1 12 6 17 5 18-4 0-7 2-47 4-88 8-147 19-187 68-238 36-38 115-82 147-82 12 0 30-5 40-10 13-7 21-7 25 0s11 7 18 2c13-10 656-8 696 2 81 19 124 41 166 83 56 57 67 96 69 234l1 106 33-8c56-12 63 10 61 207-1 93-6 177-11 188-8 14-17 17-44 13-33-6-34-4-35 26-4 164-21 235-71 286-63 64-123 82-270 82-49-1-90 4-93 10-4 5-24 17-46 25-38 16-38 16-24 44 31 60 10 137-45 165-33 17-104 19-136 3z" transform="matrix(.1 0 0 -.1 0 160)"/></svg>